<?xml version="1.0" standalone="no"?>
<!DOCTYPE svg PUBLIC "-//W3C//DTD SVG 20010904//EN"
 "http://www.w3.org/TR/2001/REC-SVG-20010904/DTD/svg10.dtd">
<svg version="1.0" xmlns="http://www.w3.org/2000/svg"
 width="215.000000pt" height="215.000000pt" viewBox="0 0 215.000000 215.000000"
 preserveAspectRatio="xMidYMid meet">
<metadata>
Created by potrace 1.11, written by Peter Selinger 2001-2013
</metadata>
<g transform="translate(0.000000,215.000000) scale(0.100000,-0.100000)"
fill="#000000" stroke="none">
<path d="M0 2056 c0 -53 4 -98 10 -101 6 -3 10 -12 10 -18 0 -7 -4 -6 -10 3
-6 10 -10 -328 -10 -962 l0 -978 400 0 c349 0 400 2 400 15 0 8 5 15 10 15 6
0 10 -7 10 -15 0 -13 25 -15 168 -15 l167 0 128 112 c70 61 125 113 122 116
-3 3 -11 -1 -18 -9 -6 -8 -11 -13 -10 -11 0 2 -5 15 -13 30 -9 18 -10 30 -3
38 16 20 16 123 0 133 -7 5 -14 21 -16 37 -6 62 -24 84 -70 83 -5 0 -12 9 -17
20 -4 12 -16 24 -25 27 -10 3 -28 11 -40 16 -30 15 -53 3 -53 -26 0 -44 -33
-42 -37 2 -2 15 12 37 42 69 51 52 55 70 21 83 -13 5 -27 13 -30 18 -3 5 -26
13 -51 16 -25 4 -45 10 -45 14 0 4 -15 13 -32 20 -56 23 -82 36 -117 59 -37
25 -56 22 -41 -7 5 -10 10 -33 10 -50 l0 -31 -62 1 c-35 1 -91 -1 -125 -3 -83
-6 -91 4 -67 80 9 32 21 62 26 68 4 5 8 21 8 35 0 14 7 50 15 80 9 30 23 84
31 120 17 73 30 93 41 64 4 -10 15 -27 24 -38 10 -10 21 -32 24 -47 4 -16 11
-29 16 -29 5 0 9 -6 9 -14 0 -35 177 -72 254 -52 32 8 34 31 4 42 -17 6 -6 9
41 11 38 3 69 10 78 19 8 7 10 14 4 14 -6 0 -9 21 -8 49 1 27 5 47 10 44 12
-8 8 44 -5 54 -7 6 -33 13 -57 17 -24 4 -56 13 -72 21 -15 8 -54 15 -86 15
-62 0 -258 -26 -274 -36 -6 -3 -15 -1 -22 4 -11 9 -38 14 -146 27 -24 3 -50
10 -57 16 -11 9 -14 8 -14 -5 0 -13 -4 -14 -17 -5 -14 8 -19 28 -21 92 -11
253 7 319 88 325 42 3 92 21 85 31 -4 7 10 11 48 12 17 0 87 -66 87 -82 0 -16
35 5 70 41 30 32 42 38 84 39 27 1 59 7 70 13 11 6 47 12 78 12 32 0 58 5 58
10 0 4 6 3 14 -3 10 -8 16 -9 21 -1 16 25 122 4 163 -34 38 -34 76 -127 81
-196 1 -25 7 -53 12 -62 5 -10 8 -40 6 -67 -2 -28 0 -54 4 -58 4 -4 9 -28 9
-53 2 -44 32 -163 52 -206 5 -12 7 -39 4 -60 -3 -22 -5 -41 -6 -44 0 -3 -4 1
-9 9 -5 8 -11 9 -15 3 -3 -6 4 -19 16 -29 24 -19 31 -60 10 -55 -7 1 -12 -5
-12 -14 0 -8 4 -13 9 -10 5 4 7 -3 4 -14 -6 -24 13 -26 42 -5 14 11 19 26 18
56 -3 62 23 149 53 181 15 15 31 25 36 22 4 -3 8 1 8 9 0 20 76 87 98 87 33 0
52 -24 62 -78 12 -66 3 -162 -22 -227 -24 -61 -82 -134 -117 -146 l-26 -9 7
-116 c9 -162 15 -186 59 -262 66 -114 64 -130 -46 -317 -30 -51 -55 -96 -55
-99 0 -3 133 -6 295 -6 l295 0 0 539 c0 433 -3 545 -14 572 -7 19 -12 57 -11
84 2 33 0 43 -6 30 -6 -17 -8 -17 -8 -2 -1 9 -5 17 -11 17 -5 0 -10 5 -10 11
0 5 5 7 10 4 6 -3 10 -1 10 4 0 6 -6 11 -14 11 -15 0 -31 43 -27 74 2 12 -2
16 -11 11 -7 -3 -5 0 4 8 10 8 15 16 12 19 -3 3 -2 18 2 32 5 20 11 25 24 21
14 -4 16 -1 12 20 -3 20 0 25 17 25 12 0 19 4 16 10 -4 6 -19 4 -41 -5 -36
-15 -36 -15 -47 15 -7 17 -17 28 -24 26 -7 -3 -15 -1 -18 4 -4 6 -1 10 5 10 7
0 10 7 7 14 -4 10 -1 13 8 10 7 -3 23 4 34 15 12 12 26 21 31 21 6 0 10 6 10
14 0 7 8 16 19 19 18 4 19 19 20 261 l2 256 -471 0 c-334 0 -470 -4 -470 -11
0 -8 -5 -7 -15 1 -22 18 -156 8 -189 -14 -29 -19 -34 -15 -10 8 14 15 -7 16
-228 16 -138 0 -237 -4 -230 -9 10 -6 7 -10 -12 -15 -26 -6 -37 -26 -15 -26 7
0 4 -11 -6 -27 -10 -16 -12 -22 -4 -15 19 17 28 15 22 -6 -7 -27 -40 -25 -46
3 -2 14 1 26 7 29 6 2 2 5 -9 6 l-20 1 20 15 c20 16 20 16 -2 10 -16 -5 -23
-2 -28 14 -6 19 -14 20 -226 20 l-219 0 0 -94z m342 46 c-13 -20 -17 -21 -24
-8 -12 21 -5 32 20 32 18 0 19 -2 4 -24z m843 -12 c3 -5 -4 -6 -15 -3 -11 3
-22 9 -25 13 -3 5 4 6 15 3 11 -3 22 -9 25 -13z m137 -2 c26 -12 48 -25 48
-29 0 -4 -12 -1 -27 7 -16 7 -35 14 -43 14 -8 0 -24 7 -34 15 -30 22 -1 19 56
-7z m-219 1 c16 1 26 -3 23 -7 -7 -12 -49 -7 -73 8 -17 11 -17 11 2 4 11 -3
33 -6 48 -5z m568 -13 c5 3 9 0 9 -5 0 -6 -9 -11 -20 -11 -20 0 -26 11 -13 24
4 4 9 2 11 -3 2 -6 8 -9 13 -5z m-355 -38 c23 -15 45 -28 49 -28 8 0 26 -19
48 -50 21 -30 22 -41 2 -34 -8 4 -15 13 -15 21 0 8 -4 12 -8 9 -5 -3 -23 13
-41 34 -18 22 -39 40 -47 40 -8 0 -14 4 -14 9 0 5 -11 12 -25 15 -14 4 -25 11
-25 16 0 13 27 2 76 -32z m157 -13 c26 -19 52 -35 57 -35 6 0 20 -10 32 -22
13 -13 36 -32 53 -43 16 -12 30 -25 31 -30 0 -6 9 -27 19 -47 20 -40 56 -59
98 -51 14 3 33 0 44 -6 16 -9 15 -10 -9 -11 -16 0 -28 -6 -28 -12 0 -8 -3 -9
-8 -3 -4 6 -18 11 -31 13 -18 2 -21 -1 -13 -10 11 -14 12 -17 12 -50 0 -17 3
-19 9 -10 6 10 10 7 13 -12 3 -14 1 -23 -3 -20 -13 7 -11 -1 6 -43 13 -31 13
-34 0 -23 -8 7 -15 16 -15 21 0 21 -63 137 -89 165 -16 17 -32 41 -35 55 -14
49 -29 69 -53 69 -13 0 -26 8 -30 18 -10 25 -94 102 -120 108 -23 6 -29 15
-17 27 3 3 11 2 18 -3 6 -6 32 -26 59 -45z m-1195 33 c-2 -6 -10 -13 -16 -14
-7 -1 -8 0 -2 3 5 2 8 9 4 14 -3 5 0 9 6 9 7 0 10 -5 8 -12z m762 -48 c18 -12
2 -12 -25 0 -13 6 -15 9 -5 9 8 0 22 -4 30 -9z m580 -1 c0 -5 -4 -9 -10 -9 -5
0 -7 -7 -4 -15 4 -8 2 -15 -4 -15 -5 0 -12 10 -14 23 -3 17 0 23 14 24 10 1
18 -2 18 -8z m-1450 -19 c0 -5 -4 -10 -10 -10 -5 0 -10 5 -10 10 0 6 5 10 10
10 6 0 10 -4 10 -10z m210 -50 c0 -5 -15 -9 -32 -9 l-33 1 30 8 c17 4 31 8 33
9 1 0 2 -3 2 -9z m-30 -40 c8 -5 11 -10 5 -10 -5 0 -17 5 -25 10 -8 5 -10 10
-5 10 6 0 17 -5 25 -10z m1434 -5 c-4 -8 -10 -15 -16 -15 -5 0 -7 4 -4 8 3 5
-8 6 -25 4 -17 -3 -29 0 -29 7 0 6 17 11 40 11 31 0 38 -3 34 -15z m161 5 c22
-9 21 -10 -12 -14 -12 -1 -20 1 -17 5 2 4 -2 10 -8 12 -9 4 -8 5 2 6 8 0 24
-4 35 -9z m69 -10 c-22 -9 -29 -6 -20 9 4 6 14 7 23 4 15 -6 14 -7 -3 -13z
m-264 -20 c0 -5 -5 -10 -11 -10 -5 0 -7 5 -4 10 3 6 8 10 11 10 2 0 4 -4 4
-10z m-1414 -266 c-4 -9 -1 -23 6 -32 10 -12 10 -16 1 -19 -7 -2 -9 -11 -6
-19 9 -25 -6 -15 -21 13 -12 24 -12 30 1 50 18 27 28 30 19 7z m1714 -149 c0
-16 -6 -25 -15 -25 -8 0 -15 9 -15 21 0 11 5 17 10 14 6 -3 10 -1 10 4 0 6 2
11 5 11 3 0 5 -11 5 -25z m-140 -13 c0 -5 -7 -9 -15 -9 -8 0 -12 4 -9 9 3 4 9
8 15 8 5 0 9 -4 9 -8z m57 -22 c10 0 12 -6 8 -20 -4 -13 -2 -20 7 -20 7 0 0
-9 -17 -20 -38 -25 -39 -25 -52 10 -6 17 -7 28 -2 25 5 -4 14 6 21 21 7 14 14
21 16 15 2 -6 10 -11 19 -11z m-66 -50 c5 0 9 -5 9 -11 0 -5 -4 -7 -10 -4 -5
3 -10 2 -10 -4 0 -5 4 -13 10 -16 15 -9 -12 -45 -35 -45 -13 0 -16 3 -8 8 7 4
16 23 19 42 5 24 4 31 -4 26 -7 -4 -12 -2 -12 4 0 7 7 9 16 6 9 -3 20 -6 25
-6z m-67 -24 c-3 -9 -10 -13 -15 -10 -5 3 -3 11 4 19 15 16 19 13 11 -9z m170
-37 c3 -3 -4 -5 -14 -6 -11 -1 -22 2 -25 8 -6 9 30 7 39 -2z m-160 -27 c2 -4
1 -14 -5 -22 -7 -12 -9 -12 -9 4 0 12 -5 16 -16 12 -8 -3 -12 -2 -9 4 7 12 32
13 39 2z m173 2 c-3 -3 -12 -4 -19 -1 -8 3 -5 6 6 6 11 1 17 -2 13 -5z m-47
-30 c-11 -28 6 -41 38 -30 9 4 -4 -12 -30 -36 -27 -24 -48 -51 -48 -61 0 -10
-8 -17 -20 -17 -22 0 -28 38 -9 57 13 13 4 33 -17 33 -8 0 -14 7 -14 16 0 10
6 14 14 11 16 -7 36 11 36 33 0 10 10 16 30 17 27 2 29 0 20 -23z m27 -16 c-3
-7 -5 -2 -5 12 0 14 2 19 5 13 2 -7 2 -19 0 -25z m-167 -58 c-19 -13 -30 -13
-30 0 0 6 10 10 23 10 18 0 19 -2 7 -10z m32 -41 c-29 -30 -52 -32 -52 -5 0
15 36 34 64 35 15 1 13 -4 -12 -30z m178 22 c0 -6 -4 -13 -10 -16 -5 -3 -10 1
-10 9 0 9 5 16 10 16 6 0 10 -4 10 -9z m-35 -19 c-3 -3 -11 0 -18 7 -9 10 -8
11 6 5 10 -3 15 -9 12 -12z m41 -44 c-17 -12 -23 -9 -23 10 0 24 21 35 28 14
4 -9 1 -20 -5 -24z m31 -10 c-1 -39 5 -56 26 -66 17 -8 18 -11 5 -11 -10 -1
-18 -5 -18 -11 0 -15 -17 -12 -40 7 -25 22 -25 27 2 63 25 34 26 35 25 18z
m-1663 -34 c9 -3 14 -10 11 -14 -7 -11 58 -40 95 -43 16 -1 30 -5 30 -9 0 -5
13 -8 29 -8 25 0 30 -5 36 -31 4 -17 3 -34 -2 -38 -6 -3 -13 -18 -17 -33 -3
-15 -12 -32 -19 -38 -69 -59 -68 -58 -126 -53 -81 8 -96 25 -97 117 0 95 6
147 17 140 5 -3 9 0 9 5 0 12 11 14 34 5z m1699 -93 c-2 -6 1 -11 6 -11 5 0
11 -9 14 -20 8 -30 -22 -25 -33 6 -13 34 -13 47 3 41 6 -2 11 -10 10 -16z
m-1166 -247 c3 -8 1 -20 -5 -26 -8 -8 -8 -17 -1 -31 9 -16 6 -24 -15 -45 -21
-22 -37 -27 -92 -30 -69 -5 -84 10 -24 23 27 6 29 9 19 27 -10 18 -9 20 5 15
11 -4 15 -3 11 4 -9 13 55 78 78 78 10 1 20 -6 24 -15z m78 -189 c69 -14 -24
-135 -104 -135 -32 0 -47 29 -27 50 8 9 8 14 -1 17 -7 3 -13 15 -13 28 0 28
32 49 61 42 11 -3 16 -1 13 4 -3 6 5 8 20 4 14 -3 37 -7 51 -10z m-155 -33 c0
-5 -7 -9 -15 -9 -8 0 -12 4 -9 9 3 4 9 8 15 8 5 0 9 -4 9 -8z m66 -125 c7 -18
45 -19 59 -1 10 14 13 14 23 1 10 -12 8 -23 -10 -56 -20 -39 -24 -41 -67 -42
-25 0 -67 -2 -93 -5 -75 -7 -99 34 -40 72 18 12 27 13 30 6 2 -7 8 -12 13 -12
6 0 7 5 4 10 -4 6 5 10 19 10 16 0 26 6 26 15 0 18 29 20 36 2z"/>
<path d="M1913 1205 c6 -17 57 -18 57 -2 0 9 -10 14 -30 13 -16 -1 -28 -5 -27
-11z"/>
<path d="M450 2140 c0 -5 5 -10 11 -10 5 0 7 5 4 10 -3 6 -8 10 -11 10 -2 0
-4 -4 -4 -10z"/>
<path d="M485 2140 c-3 -6 1 -7 9 -4 18 7 21 14 7 14 -6 0 -13 -4 -16 -10z"/>
<path d="M2120 1610 c0 -5 4 -10 9 -10 6 0 13 5 16 10 3 6 -1 10 -9 10 -9 0
-16 -4 -16 -10z"/>
<path d="M1679 1194 c-9 -9 -27 -17 -40 -17 -20 -2 -24 -8 -26 -35 -2 -30 1
-33 25 -30 21 2 28 10 32 33 9 52 24 33 46 -55 l21 -85 7 65 c12 101 6 134
-24 138 -14 1 -32 -5 -41 -14z"/>
<path d="M1558 1060 c-3 -17 0 -34 5 -37 5 -3 7 -28 4 -55 -5 -36 -3 -48 6
-45 7 2 12 15 12 28 0 19 5 24 25 24 19 0 25 -5 24 -22 -1 -32 21 -29 45 6 34
47 22 111 -20 111 -11 0 -29 5 -39 10 -15 8 -21 6 -29 -7 -10 -17 -10 -17 -11
0 0 29 -17 19 -22 -13z"/>
<path d="M1674 905 c-10 -8 -14 -15 -8 -15 6 0 17 7 24 15 16 19 9 19 -16 0z"/>
<path d="M1515 779 c-4 -6 -4 -13 -1 -16 3 -4 6 -1 6 6 0 7 4 10 8 7 4 -2 14
-1 22 5 12 7 10 9 -7 9 -12 0 -25 -5 -28 -11z"/>
<path d="M1226 615 c4 -8 8 -15 10 -15 2 0 4 7 4 15 0 8 -4 15 -10 15 -5 0 -7
-7 -4 -15z"/>
</g>
</svg>
